<svg width="60" height="60" viewBox="0 0 60 60" fill="none" xmlns="http://www.w3.org/2000/svg">
<path d="M29.4996 14.6093C30.0496 14.6093 30.4956 14.1632 30.4956 13.6132V8.53906C30.4956 7.98902 30.0497 7.54297 29.4996 7.54297C28.9494 7.54297 28.5035 7.98892 28.5035 8.53906V13.6132C28.5036 14.1632 28.9495 14.6093 29.4996 14.6093Z" fill="black"/>
<path d="M22.0107 16.2452C22.2 16.5457 22.5235 16.7102 22.8543 16.7102C23.0357 16.7102 23.2195 16.6606 23.3844 16.5567C23.8498 16.2635 23.9892 15.6484 23.696 15.1829L21.042 10.972C20.7486 10.5066 20.1335 10.367 19.6683 10.6604C19.2029 10.9536 19.0634 11.5687 19.3567 12.0342L22.0107 16.2452Z" fill="black"/>
<path d="M35.618 16.557C35.7828 16.6607 35.9664 16.7102 36.1477 16.7102C36.4786 16.7102 36.8022 16.5454 36.9916 16.2447L39.6428 12.0337C39.9359 11.5681 39.7961 10.9532 39.3305 10.66C38.8648 10.367 38.2501 10.5069 37.9569 10.9723L35.3057 15.1833C35.0127 15.6489 35.1525 16.2638 35.618 16.557Z" fill="black"/>
<path d="M54.6789 30.9935L52.9481 27.936C52.677 27.4571 52.0692 27.2888 51.5908 27.5599C51.1119 27.8309 50.9436 28.4386 51.2146 28.9173L52.9446 31.9735C53.0312 32.1271 53.0087 32.2752 52.9876 32.3498C52.9673 32.4216 52.9113 32.5542 52.7649 32.6351L50.0975 34.1126C49.8606 34.2435 49.5513 34.1608 49.4221 33.9329L48.7444 32.7342C48.7416 32.7288 48.7385 32.7238 48.7356 32.7186L41.73 20.3278C41.6435 20.1753 41.6654 20.029 41.6861 19.9554C41.7061 19.8842 41.7617 19.7526 41.9082 19.6716L44.5787 18.1938C44.8186 18.061 45.1204 18.1416 45.2515 18.3741L46.8128 21.1326C47.0839 21.6114 47.6918 21.7797 48.1703 21.5088C48.6491 21.2379 48.8175 20.6301 48.5465 20.1514L46.9859 17.3941C46.3203 16.2141 44.8081 15.7909 43.6146 16.4506L40.9441 17.9284C40.3663 18.2477 39.9488 18.7756 39.7687 19.4149C39.5988 20.0178 39.6596 20.6471 39.9378 21.1994L38.4668 21.6258C37.8401 21.8071 37.4598 21.9054 37.2487 21.9054C37.2478 21.9054 37.247 21.9054 37.2462 21.9054C37.1009 21.9049 36.9424 21.8494 36.4901 21.6781C36.2849 21.6004 36.0294 21.5036 35.7153 21.394L33.1091 20.4829C31.6676 19.9794 31.0175 20.0065 30.0756 20.0925L25.6314 20.4902C23.6054 20.6697 22.3138 21.1267 21.6008 21.9193L19.0681 21.1855C19.3407 20.6356 19.3991 20.0123 19.2308 19.4149C19.0507 18.776 18.6335 18.2482 18.0563 17.9289L15.3874 16.4504C14.1929 15.7901 12.6797 16.2135 12.014 17.3932L4.32378 30.9921C3.99457 31.5718 3.91309 32.2459 4.09458 32.8905C4.27487 33.5306 4.69223 34.0589 5.26897 34.3779L7.9379 35.8562C8.3195 36.0671 8.73408 36.1673 9.14317 36.1673C10.0123 36.1673 10.8572 35.7152 11.3113 34.9135L11.5933 34.4146C12.3628 34.7534 13.009 35.2455 13.4494 35.8283C13.0193 36.3309 12.7483 36.9512 12.6723 37.6258C12.5719 38.518 12.8239 39.3934 13.3819 40.0911C13.9352 40.7829 14.7263 41.2194 15.6109 41.3222C15.5173 42.2068 15.7703 43.0736 16.324 43.7636C16.8964 44.4792 17.7053 44.8967 18.5515 44.9952C18.4582 45.8785 18.7103 46.7445 19.2624 47.4349C19.8153 48.1282 20.6066 48.5656 21.4921 48.6684C21.3984 49.5537 21.6514 50.421 22.2051 51.1111C22.8651 51.9363 23.8395 52.3659 24.8232 52.3658C25.5575 52.3658 26.297 52.1263 26.9144 51.6333L29 49.9644C29.1656 49.8322 29.3161 49.6861 29.4515 49.5287L30.6428 50.4804C31.2589 50.9721 31.9967 51.2109 32.7301 51.2108C33.7142 51.2107 34.6902 50.7806 35.3511 49.9547C35.6994 49.5192 35.9199 49.0221 36.0196 48.509C36.3679 48.6295 36.7356 48.6918 37.1106 48.6917C37.2363 48.6917 37.3628 48.6847 37.4897 48.6707C38.3822 48.5716 39.1803 48.1327 39.7348 47.4372C40.2895 46.7461 40.5425 45.8794 40.449 44.9949C41.2946 44.8962 42.1039 44.4788 42.6779 43.7635C43.2497 43.0486 43.4792 42.1685 43.3893 41.322C44.2735 41.219 45.0642 40.7826 45.6161 40.0924C46.1745 39.3966 46.4276 38.5225 46.3287 37.631C46.2536 36.9542 45.9825 36.3319 45.5516 35.8279C45.9906 35.2453 46.6355 34.7526 47.4056 34.414L47.6882 34.9139C48.142 35.7153 48.9865 36.1672 49.8558 36.1672C50.2651 36.1671 50.68 36.0669 51.062 35.8558L53.7295 34.3782C54.306 34.0594 54.7232 33.5319 54.9042 32.8929C55.0867 32.2489 55.0069 31.5747 54.6789 30.9935ZM9.57747 33.9324C9.44798 34.1611 9.13849 34.2436 8.90252 34.113L6.23369 32.6348C6.08796 32.5541 6.03238 32.422 6.01206 32.3504C5.99124 32.2762 5.96902 32.1289 6.05688 31.9745L13.7483 18.3728C13.8364 18.2167 14.0023 18.1293 14.1746 18.1293C14.2585 18.1293 14.3438 18.1499 14.4225 18.1934L17.0906 19.6714C17.0909 19.6716 17.0912 19.6718 17.0915 19.6719C17.2375 19.7527 17.293 19.8843 17.3131 19.9555C17.3338 20.0291 17.3558 20.1754 17.2682 20.3296L9.57747 33.9324ZM16.8464 39.0583C16.5655 39.2833 16.2107 39.385 15.8483 39.3447C15.4856 39.3044 15.1624 39.1277 14.9378 38.847C14.7128 38.5656 14.6114 38.211 14.6522 37.8486C14.6927 37.4878 14.8695 37.1661 15.1518 36.9415L18.881 33.9606C19.4663 33.4933 20.323 33.5894 20.7908 34.1737C21.0157 34.4549 21.1172 34.8089 21.0766 35.1701C21.0361 35.5302 20.8592 35.8516 20.5785 36.0749C20.5723 36.0798 20.5671 36.0853 20.5611 36.0903L16.8473 39.0576C16.847 39.0578 16.8467 39.0581 16.8464 39.0583ZM17.8787 42.5181C17.6539 42.2379 17.5523 41.8848 17.5924 41.5238C17.6326 41.1625 17.8096 40.8394 18.0907 40.614L18.091 40.6138C18.0912 40.6137 18.0914 40.6135 18.0916 40.6134C18.0917 40.6134 18.0917 40.6133 18.0918 40.6132L23.4633 36.3216C24.0485 35.8543 24.9054 35.9497 25.3731 36.5347C25.5977 36.8155 25.6992 37.1691 25.6591 37.5303C25.6188 37.8919 25.4413 38.215 25.1595 38.4401L19.7894 42.7301C19.2035 43.1977 18.3469 43.1033 17.8787 42.5181ZM21.7294 46.6908C21.3668 46.6505 21.0439 46.4736 20.8191 46.1917C20.5945 45.9109 20.493 45.5573 20.5331 45.1961C20.5733 44.8348 20.7505 44.512 21.0319 44.2869C21.0321 44.2867 21.0324 44.2865 21.0326 44.2863L24.7499 41.3167C24.7542 41.3133 24.759 41.3105 24.7634 41.307C25.3471 40.8397 26.2038 40.9348 26.6719 41.5183C26.8969 41.7996 26.9984 42.1542 26.9577 42.5166C26.9171 42.8775 26.7402 43.1992 26.4581 43.4238L22.729 46.4046C22.4472 46.6296 22.0921 46.7308 21.7294 46.6908ZM28.2556 47.4994C28.2153 47.8607 28.0383 48.1831 27.7564 48.4082L25.6706 50.0774C25.0846 50.545 24.228 50.4509 23.76 49.8656C23.5352 49.5856 23.4335 49.2322 23.4737 48.8705C23.5138 48.5088 23.6906 48.1862 23.9712 47.9621C23.9715 47.9619 23.9719 47.9616 23.9722 47.9614L26.0574 46.2945C26.0585 46.2936 26.0597 46.2929 26.0608 46.2921C26.6462 45.825 27.503 45.9207 27.9707 46.5052C28.1947 46.7855 28.296 47.1384 28.2556 47.4994ZM44.0614 38.8469C43.8369 39.1276 43.5136 39.3044 43.151 39.3447C42.7887 39.3854 42.4338 39.2834 42.1529 39.0583C42.1528 39.0582 42.1526 39.0581 42.1524 39.058C42.1523 39.0579 42.1521 39.0578 42.152 39.0577L39.4866 36.9281C39.0567 36.5847 38.43 36.6548 38.0867 37.0845C37.7434 37.5142 37.8134 38.1411 38.2431 38.4844L40.9076 40.6133C41.4921 41.0814 41.5884 41.9364 41.1232 42.518C40.6539 43.1029 39.7971 43.1981 39.2122 42.7296L36.3211 40.4224C35.8912 40.0794 35.2644 40.1498 34.9213 40.5797C34.5782 41.0096 34.6485 41.6364 35.0785 41.9795L37.9683 44.2856C38.2499 44.5111 38.4271 44.8344 38.4674 45.1961C38.5075 45.5571 38.4059 45.9103 38.1792 46.1927C37.9552 46.4736 37.6322 46.6504 37.2697 46.6908C36.9069 46.7307 36.5518 46.6294 36.2711 46.4054L34.8325 45.2549C34.83 45.2529 34.8278 45.2508 34.8253 45.2488L33.6099 44.2771L33.3827 44.0954C32.9529 43.7518 32.3261 43.8216 31.9827 44.2511C31.9398 44.3049 31.9032 44.3617 31.8731 44.4207C31.7289 44.7026 31.7313 45.0332 31.8666 45.3104C31.9293 45.4388 32.0195 45.556 32.1385 45.6511L33.5849 46.8079C34.1655 47.2768 34.2605 48.1289 33.7956 48.7101C33.3277 49.2949 32.4709 49.3905 31.8859 48.9238L30.2448 47.6127C30.3131 46.7602 30.0605 45.9287 29.5262 45.2607C29.1941 44.8456 28.7822 44.5312 28.3299 44.3204C28.6614 43.8605 28.8719 43.3202 28.9372 42.7393C29.0376 41.8472 28.7856 40.9718 28.2266 40.2728C27.8944 39.8589 27.483 39.5452 27.0316 39.3348C27.3637 38.8735 27.5742 38.3321 27.6389 37.7504C27.738 36.8603 27.4858 35.9866 26.9288 35.2901C25.9704 34.0918 24.3495 33.7275 23.0005 34.3001C22.8925 33.8042 22.6719 33.3364 22.3462 32.9291C21.1929 31.488 19.081 31.2522 17.6376 32.4039L14.9704 34.5358C14.3673 33.7662 13.5474 33.1279 12.578 32.6726L18.0644 22.9686L20.9855 23.815C20.9989 23.9713 21.0242 24.1356 21.0665 24.3097C21.7736 27.2171 24.4505 28.5718 28.0527 27.846C31.0878 27.2353 32.3373 28.145 34.8258 29.9572C35.084 30.1452 35.3523 30.3405 35.6331 30.5416C37.4227 31.8256 39.3352 33.3347 40.6175 34.3576L43.8508 36.9417C44.1317 37.1658 44.3085 37.4886 44.3487 37.8505C44.3888 38.2122 44.2872 38.5656 44.0614 38.8469ZM44.0304 34.5352L41.8606 32.8011C40.5606 31.7641 38.6211 30.2338 36.7938 28.9228C36.5169 28.7244 36.2528 28.5321 35.9986 28.347C33.4182 26.4679 31.5532 25.1102 27.6596 25.8932C26.4679 26.1334 23.6287 26.4142 23.0024 23.8395C22.9142 23.476 23.0038 23.3511 23.042 23.2978C23.1751 23.1121 23.711 22.6602 25.8077 22.4745L30.2566 22.0764C30.9815 22.0103 31.3452 21.977 32.4516 22.3635L35.0582 23.2747C35.348 23.3759 35.5797 23.4636 35.7842 23.5411C37.0393 24.0165 37.3718 24.0164 39.0207 23.5392L40.9423 22.9824L46.4214 32.6732C45.4517 33.1282 44.6326 33.766 44.0304 34.5352Z" fill="black"/>
<path d="M49.877 25.5318C50.4271 25.5318 50.8731 25.0843 50.8731 24.5342C50.8731 23.984 50.4271 23.5381 49.877 23.5381C49.327 23.5381 48.8809 23.9841 48.8809 24.5342V24.537C48.8809 25.0871 49.327 25.5318 49.877 25.5318Z" fill="black"/>
</svg>
