<svg width="80" height="80" viewBox="0 0 80 80" fill="none" xmlns="http://www.w3.org/2000/svg">
<path d="M21.9902 11.0552C25.1724 11.7326 27.9067 13.621 29.6875 16.215C31.4684 13.621 34.2026 11.7326 37.3848 11.0552C36.4735 7.65769 33.3726 5.15625 29.6875 5.15625C26.0024 5.15625 22.9015 7.65769 21.9902 11.0552Z" fill="currentColor"/>
<path d="M58.0098 11.0552C57.0985 7.6577 53.9977 5.15625 50.3125 5.15625C46.6274 5.15625 43.5265 7.6577 42.6152 11.0552C45.7974 11.7326 48.5317 13.621 50.3125 16.215C52.0934 13.621 54.8276 11.7326 58.0098 11.0552Z" fill="currentColor"/>
<path d="M27.0397 21.0938C26.089 17.7563 23.0174 15.3125 19.375 15.3125C15.7325 15.3125 12.6609 17.7563 11.7102 21.0938H27.0397Z" fill="currentColor"/>
<path d="M68.2897 21.0938C67.339 17.7563 64.2674 15.3125 60.625 15.3125C56.9825 15.3125 53.9109 17.7563 52.9602 21.0938H68.2897Z" fill="currentColor"/>
<path d="M47.6647 21.0938C46.714 17.7563 43.6424 15.3125 40 15.3125C36.3575 15.3125 33.2859 17.7563 32.3352 21.0938H47.6647Z" fill="currentColor"/>
<path d="M73.75 43.5938H42.3438V75H73.75V43.5938Z" fill="currentColor"/>
<path fill-rule="evenodd" clip-rule="evenodd" d="M37.6562 43.5938H6.25V75H37.6562V43.5938ZM16.25 50.625H25.625V55.3125H16.25V50.625ZM16.25 60H25.625V64.6875H16.25V60Z" fill="currentColor"/>
<path d="M2.21691 25.625H37.6562L35 38.9062H0L2.21691 25.625Z" fill="currentColor"/>
<path d="M77.7831 25.625H42.3438L45 38.9062H80L77.7831 25.625Z" fill="currentColor"/>
</svg>
