<svg width="80" height="80" viewBox="0 0 80 80" fill="none" xmlns="http://www.w3.org/2000/svg">
<path d="M14.0625 4.84375C11.4737 4.84375 9.375 6.94242 9.375 9.53125H2.5C1.11929 9.53125 0 10.6505 0 12.0312V21.0938C0 22.4745 1.11929 23.5938 2.5 23.5938H9.375C9.375 26.1826 11.4737 28.2812 14.0625 28.2812H65.9375C68.5263 28.2812 70.625 26.1826 70.625 23.5938H77.5C78.8807 23.5938 80 22.4745 80 21.0938V12.0312C80 10.6505 78.8807 9.53125 77.5 9.53125H70.625C70.625 6.94242 68.5263 4.84375 65.9375 4.84375H14.0625Z" fill="currentColor"/>
<path d="M23.4375 32.9688V72.6562C23.4375 74.037 24.5568 75.1562 25.9375 75.1562H54.0625C55.4432 75.1562 56.5625 74.037 56.5625 72.6562V32.9688H23.4375Z" fill="currentColor"/>
<path d="M14.0625 32.9688H18.75V56.4062H14.0625C11.4737 56.4062 9.375 54.3076 9.375 51.7188H2.5C1.11929 51.7188 0 50.5995 0 49.2188V40.1562C0 38.7755 1.11929 37.6562 2.5 37.6562H9.375C9.375 35.0674 11.4737 32.9688 14.0625 32.9688Z" fill="currentColor"/>
<path d="M65.9375 56.4062H61.25V32.9688H65.9375C68.5263 32.9688 70.625 35.0674 70.625 37.6562H77.5C78.8807 37.6562 80 38.7755 80 40.1562V49.2188C80 50.5995 78.8807 51.7188 77.5 51.7188H70.625C70.625 54.3076 68.5263 56.4062 65.9375 56.4062Z" fill="currentColor"/>
</svg>
