<?xml version="1.0" encoding="utf-8"?><svg viewBox="0 0 80 80" xmlns="http://www.w3.org/2000/svg" xmlns:xlink="http://www.w3.org/1999/xlink"><style>:root>svg{display:none}:root>svg:target{display:block}</style><svg fill="none" viewBox="0 0 9 15" id="arrow-right" xmlns="http://www.w3.org/2000/svg"><path d="M1.423 14.34h0a.535.535 0 01-.763 0h0a.557.557 0 010-.781h0l5.659-5.707.349-.352-.35-.352L.66 1.44s0 0 0 0a.557.557 0 010-.781h0a.535.535 0 01.763 0h0l6.395 6.45s0 0 0 0a.552.552 0 010 .781s0 0 0 0l-6.395 6.45z" fill="#D53834" stroke="#D53834"/></svg><svg fill="none" viewBox="0 0 50 50" id="benefits-icon1" xmlns="http://www.w3.org/2000/svg"><path d="M49.194 0H4.032a.807.807 0 00-.806.806v2.42H.806A.807.807 0 000 4.032V36.29c0 .447.361.807.806.807H16.55a8.93 8.93 0 002.806 2.247v9.85a.807.807 0 001.377.57l2.655-2.656 2.656 2.656a.807.807 0 001.376-.57v-9.85a8.93 8.93 0 002.806-2.247h15.743c.445 0 .806-.36.806-.807v-2.419h2.42c.445 0 .806-.36.806-.806V.806A.807.807 0 0049.194 0zM25.806 47.247l-1.849-1.85a.806.806 0 00-1.14 0l-1.85 1.85v-7.268c.771.219 1.58.344 2.42.344.84 0 1.65-.125 2.42-.344v7.268zm-2.419-8.537c-4.001 0-7.258-3.256-7.258-7.258 0-4.003 3.257-7.259 7.258-7.259 4.002 0 7.258 3.256 7.258 7.259 0 4.002-3.256 7.258-7.258 7.258zm-8.83-6.452H9.62a5.66 5.66 0 00-4.781-4.782v-14.63A5.66 5.66 0 009.62 8.065h27.535a5.66 5.66 0 004.781 4.781v14.631a5.658 5.658 0 00-4.78 4.782h-4.938a9.29 9.29 0 00.04-.807c0-4.892-3.98-8.871-8.87-8.871-4.892 0-8.872 3.98-8.872 8.87 0 .273.017.54.041.807zm30.604 3.226H31.28c.262-.511.476-1.05.636-1.613h5.988c.446 0 .807-.36.807-.806a4.037 4.037 0 014.032-4.033c.445 0 .806-.36.806-.806v-16.13a.807.807 0 00-.806-.806 4.037 4.037 0 01-4.032-4.032.807.807 0 00-.807-.806H8.871a.807.807 0 00-.806.806 4.037 4.037 0 01-4.033 4.032.807.807 0 00-.806.807v16.129c0 .446.361.806.806.806a4.037 4.037 0 014.033 4.033c0 .446.361.806.806.806h5.989c.16.563.373 1.102.635 1.613H1.613V4.839H45.16v30.645zm3.226-3.226h-1.613V4.032a.807.807 0 00-.806-.806H4.838V1.613h43.55v30.645z" fill="#000"/><path d="M23.387 25.807a5.652 5.652 0 00-5.645 5.645h1.613a4.037 4.037 0 014.032-4.033v-1.612zM27.42 31.451a4.037 4.037 0 01-4.033 4.032v1.613a5.652 5.652 0 005.645-5.645H27.42zM35.484 13.71v-3.226a.807.807 0 00-.806-.806H12.097a.807.807 0 00-.807.806v3.226c0 .445.362.806.807.806h22.58a.807.807 0 00.807-.806zm-1.613-.806H12.903V11.29h20.968v1.613zM6.452 16.129h6.451v1.613H6.452v-1.613zM6.452 19.355h6.451v1.612H6.452v-1.612zM14.516 19.355h25.807v1.612H14.516v-1.612zM14.516 16.129h25.807v1.613H14.516v-1.613z" fill="#000"/></svg><svg fill="none" viewBox="0 0 60 60" id="benefits-icon2" xmlns="http://www.w3.org/2000/svg"><path d="M55.8 27.112l-1.554-6.215a.94.94 0 00.743-.918v-1.002a3.95 3.95 0 00-3.945-3.946h-7.077v-2.067c0-1.07-.871-1.941-1.942-1.941H5.95c-1.07 0-1.942.87-1.942 1.941V30a.94.94 0 001.88 0V12.964c0-.034.027-.063.062-.063h36.075c.035 0 .063.029.063.063V30a.94.94 0 001.879 0v-1.065H55.054a3.074 3.074 0 012.92 2.13h-2.922a.94.94 0 00-.94.939v2.004a2.947 2.947 0 002.944 2.944h1.065v4.133h-2.457a5.959 5.959 0 00-5.623-4.008 5.959 5.959 0 00-5.622 4.008h-.453v-7.077a.94.94 0 00-1.879 0v7.077H22.596a5.96 5.96 0 00-5.623-4.008 5.96 5.96 0 00-5.623 4.008h-5.4a.063.063 0 01-.063-.063v-2.066h4.071a.94.94 0 000-1.88H.94a.94.94 0 000 1.88h3.07v2.066c0 1.071.87 1.942 1.941 1.942h5.075l-.002.063c0 3.28 2.67 5.95 5.95 5.95 3.28 0 5.95-2.67 5.95-5.95l-.002-.063h21.172l-.001.063c0 3.28 2.669 5.95 5.95 5.95 3.28 0 5.95-2.67 5.95-5.95l-.002-.063h3.07a.94.94 0 00.94-.94v-10.02a4.955 4.955 0 00-4.2-4.892zM43.967 16.91h7.077a2.07 2.07 0 012.067 2.067v.062h-9.144v-2.13zm0 10.146v-6.138h8.348l1.534 6.138h-9.882zM16.973 47.098a4.075 4.075 0 01-4.071-4.071 4.076 4.076 0 014.07-4.071 4.076 4.076 0 014.072 4.07 4.075 4.075 0 01-4.071 4.072zm33.069 0a4.075 4.075 0 01-4.071-4.071 4.076 4.076 0 014.07-4.071 4.076 4.076 0 014.072 4.07 4.075 4.075 0 01-4.071 4.072zm8.08-12.025h-1.066a1.066 1.066 0 01-1.064-1.065v-1.065h2.129v2.13z" fill="#000"/><path d="M16.973 41.086c-1.07 0-1.942.87-1.942 1.942 0 1.07.871 1.941 1.942 1.941 1.07 0 1.941-.87 1.941-1.941 0-1.071-.87-1.942-1.941-1.942zM50.042 41.086c-1.071 0-1.942.87-1.942 1.942 0 1.07.871 1.941 1.942 1.941 1.07 0 1.941-.87 1.941-1.941 0-1.071-.87-1.942-1.941-1.942zM39.019 37.077h-14.03a.94.94 0 000 1.88h14.03a.94.94 0 000-1.88zM14.969 33.07H2.944a.94.94 0 000 1.878h12.025a.94.94 0 000-1.879zM32.669 20.317a.94.94 0 00-1.33 0l-8.354 8.355-4.346-4.346a.94.94 0 00-1.328 1.328l5.01 5.01a.936.936 0 001.329 0l9.018-9.018a.94.94 0 000-1.329z" fill="#000"/></svg><svg fill="none" viewBox="0 0 60 60" id="benefits-icon3" xmlns="http://www.w3.org/2000/svg"><path d="M29.5 14.61c.55 0 .996-.447.996-.997V8.54a.996.996 0 10-1.992 0v5.074c0 .55.445.996.996.996zM22.01 16.245a.995.995 0 101.686-1.062l-2.654-4.211a.996.996 0 10-1.685 1.062l2.654 4.211zM35.618 16.557a.996.996 0 001.374-.312l2.65-4.211a.996.996 0 00-1.685-1.062l-2.651 4.211a.996.996 0 00.312 1.374z" fill="#000"/><path d="M54.679 30.994l-1.73-3.058a.996.996 0 10-1.734.981l1.73 3.056a.492.492 0 01-.18.662l-2.668 1.478a.505.505 0 01-.675-.18l-.678-1.199-.008-.015-7.006-12.391a.486.486 0 01.178-.656l2.67-1.478a.496.496 0 01.673.18l1.562 2.759a.996.996 0 001.733-.982l-1.56-2.757c-.666-1.18-2.178-1.603-3.371-.943l-2.67 1.477a2.44 2.44 0 00-1.176 1.487 2.46 2.46 0 00.169 1.784l-1.471.427c-.627.181-1.007.28-1.218.28h-.003c-.145-.001-.304-.057-.756-.228-.205-.078-.46-.174-.775-.284l-2.606-.911c-1.441-.504-2.092-.477-3.033-.39l-4.445.397c-2.026.18-3.317.637-4.03 1.43l-2.533-.735a2.46 2.46 0 00.163-1.77 2.442 2.442 0 00-1.175-1.486l-2.669-1.479c-1.194-.66-2.707-.236-3.373.943l-7.69 13.6c-.33.579-.41 1.253-.23 1.898.18.64.598 1.168 1.175 1.487l2.669 1.478c.381.211.796.311 1.205.311.87 0 1.714-.452 2.168-1.254l.282-.498c.77.338 1.416.83 1.856 1.413a3.324 3.324 0 00-.777 1.798c-.1.892.152 1.767.71 2.465a3.325 3.325 0 002.229 1.231c-.094.885.16 1.752.713 2.442a3.336 3.336 0 002.227 1.231c-.093.884.16 1.75.711 2.44a3.32 3.32 0 002.23 1.233 3.343 3.343 0 003.331 3.697c.735 0 1.474-.239 2.091-.732L29 49.964c.166-.132.316-.278.451-.435l1.192.951c.616.492 1.354.73 2.087.73.984 0 1.96-.43 2.621-1.255.348-.436.569-.933.669-1.446a3.33 3.33 0 001.47.162 3.32 3.32 0 002.245-1.234 3.318 3.318 0 00.714-2.442 3.333 3.333 0 002.94-3.673 3.323 3.323 0 002.227-1.23 3.32 3.32 0 00.713-2.461 3.326 3.326 0 00-.777-1.803c.439-.583 1.084-1.075 1.854-1.414l.282.5a2.486 2.486 0 002.168 1.253c.41 0 .824-.1 1.206-.311l2.668-1.478a2.445 2.445 0 001.174-1.485 2.467 2.467 0 00-.225-1.9zM9.577 33.931a.505.505 0 01-.674.181l-2.67-1.478a.489.489 0 01-.177-.66l7.692-13.602a.486.486 0 01.427-.244c.083 0 .169.02.247.064l2.669 1.478a.486.486 0 01.177.658l-7.69 13.603zm7.27 5.126c-.282.225-.636.327-.999.287a1.347 1.347 0 01-1.196-1.496c.04-.361.218-.683.5-.907l3.729-2.981a1.362 1.362 0 011.91.213c.225.28.326.635.286.996-.04.36-.218.682-.499.905l-.017.015-3.714 2.968zm1.032 3.46a1.34 1.34 0 01-.287-.994c.04-.361.218-.685.499-.91l5.372-4.292a1.361 1.361 0 011.91.213c.225.28.326.634.286.995-.04.362-.218.685-.5.91l-5.37 4.29a1.362 1.362 0 01-1.91-.212zm3.85 4.173a1.345 1.345 0 01-1.196-1.495c.04-.361.218-.684.499-.91l3.718-2.97.013-.009a1.36 1.36 0 011.909.211c.225.282.326.636.286.999-.04.36-.218.682-.5.907l-3.729 2.98a1.353 1.353 0 01-1 .287zm6.527.808c-.04.362-.218.684-.5.91l-2.085 1.668a1.361 1.361 0 01-1.911-.211 1.341 1.341 0 01-.286-.995c.04-.362.217-.685.497-.909h.001l2.085-1.668.004-.002a1.362 1.362 0 011.91.213c.224.28.325.633.285.994zm15.805-8.652c-.224.28-.547.457-.91.498a1.345 1.345 0 01-.998-.287h-.001l-2.665-2.13a.996.996 0 00-1.244 1.556l2.665 2.13c.584.467.68 1.322.215 1.904-.47.585-1.326.68-1.91.212l-2.892-2.308a.996.996 0 00-1.242 1.558l2.89 2.306c.28.225.458.548.498.91.04.361-.061.714-.288.997-.224.28-.547.457-.91.498a1.353 1.353 0 01-.998-.286l-1.438-1.15-.008-.006-1.215-.972-.227-.182a.996.996 0 00-1.245 1.556l1.447 1.157c.58.469.675 1.32.21 1.902a1.362 1.362 0 01-1.91.214l-1.64-1.311a3.329 3.329 0 00-1.915-3.292c.331-.46.542-1 .607-1.582a3.335 3.335 0 00-1.906-3.404 3.333 3.333 0 00.608-1.585c.099-.89-.153-1.763-.71-2.46A3.358 3.358 0 0023 34.3a3.322 3.322 0 00-.655-1.37 3.357 3.357 0 00-4.708-.526l-2.668 2.132c-.603-.77-1.423-1.408-2.392-1.863l5.486-9.704 2.921.846c.014.156.04.32.082.495.707 2.907 3.384 4.262 6.986 3.536 3.035-.61 4.284.299 6.773 2.111.258.188.526.383.807.585 1.79 1.284 3.702 2.793 4.984 3.816l3.234 2.584c.28.224.458.547.498.908.04.362-.062.716-.288.997zm-.03-4.312l-2.17-1.734c-1.3-1.037-3.24-2.567-5.067-3.878-.277-.199-.541-.39-.795-.576-2.58-1.88-4.446-3.237-8.34-2.454-1.191.24-4.03.521-4.657-2.053-.088-.364.002-.489.04-.542.133-.186.669-.638 2.766-.823l4.449-.399c.724-.066 1.088-.099 2.195.287l2.606.912c.29.1.522.189.726.266 1.255.476 1.588.475 3.237-.002l1.921-.557 5.48 9.691c-.97.455-1.79 1.093-2.392 1.862z" fill="#000"/><path d="M49.877 25.532a.997.997 0 000-1.994.996.996 0 00-.996.996v.003c0 .55.446.995.996.995z" fill="#000"/></svg><svg fill="none" viewBox="0 0 28 20" id="mail-us-icon" xmlns="http://www.w3.org/2000/svg"><path d="M0 0v20h28V0H0zm14 12.35L2.516 1.485h22.968L14 12.35zM9.425 9.997l-8.048 7.617V2.38l8.048 7.616zm1.043.988L14 14.325l3.531-3.341 7.96 7.533H2.508l7.96-7.533zm8.106-.987l8.05-7.617v15.233l-8.05-7.616z" fill="#F14840"/></svg><svg fill="none" viewBox="0 0 80 80" id="scope-of-use-img1" xmlns="http://www.w3.org/2000/svg"><path d="M5.02 2.263A2.5 2.5 0 017.507 0h64.91a2.5 2.5 0 012.488 2.26l5.064 52.343a2.5 2.5 0 01-2.489 2.74H58.594V36.948A19.8 19.8 0 0059.844 30c0-10.96-8.884-19.844-19.843-19.844-10.96 0-19.844 8.885-19.844 19.844a19.8 19.8 0 001.25 6.947v20.397H2.516a2.5 2.5 0 01-2.489-2.738L5.02 2.263z" fill="currentColor"/><path d="M54.562 34.219c.387-1.34.595-2.755.595-4.219 0-8.37-6.786-15.156-15.157-15.156-8.37 0-15.156 6.785-15.156 15.156 0 1.464.208 2.88.595 4.219h29.123zM53.907 38.906v23.229a2.656 2.656 0 01-5.313 0V50a2.344 2.344 0 10-4.687 0v26.094a3.906 3.906 0 01-7.813 0V57.5a2.344 2.344 0 10-4.687 0v12.031a2.656 2.656 0 01-5.313 0V38.906h27.813z" fill="currentColor"/></svg><svg fill="none" viewBox="0 0 80 80" id="scope-of-use-img2" xmlns="http://www.w3.org/2000/svg"><path d="M14.063 4.844A4.688 4.688 0 009.375 9.53H2.5a2.5 2.5 0 00-2.5 2.5v9.063a2.5 2.5 0 002.5 2.5h6.875a4.687 4.687 0 004.688 4.687h51.874a4.687 4.687 0 004.688-4.687H77.5a2.5 2.5 0 002.5-2.5V12.03a2.5 2.5 0 00-2.5-2.5h-6.875a4.688 4.688 0 00-4.688-4.687H14.063zM23.438 32.969v39.687a2.5 2.5 0 002.5 2.5h28.125a2.5 2.5 0 002.5-2.5V32.97H23.437zM14.063 32.969h4.687v23.437h-4.688a4.687 4.687 0 01-4.687-4.687H2.5a2.5 2.5 0 01-2.5-2.5v-9.063a2.5 2.5 0 012.5-2.5h6.875a4.687 4.687 0 014.688-4.687zM65.938 56.406H61.25V32.97h4.688a4.687 4.687 0 014.687 4.687H77.5a2.5 2.5 0 012.5 2.5v9.063a2.5 2.5 0 01-2.5 2.5h-6.875a4.687 4.687 0 01-4.688 4.687z" fill="currentColor"/></svg><svg fill="none" viewBox="0 0 80 80" id="scope-of-use-img3" xmlns="http://www.w3.org/2000/svg"><path d="M40 16.062c-.334-.378-.73-.722-1.094-.906L28.23 9.76a2.501 2.501 0 00-1.569-.172l1.464-3.024c.313-.625 1.068-1.47 1.719-1.797L38.957.228a2.501 2.501 0 012.086 0l9.113 4.538c.65.328 1.407 1.171 1.719 1.796l1.464 3.025a2.494 2.494 0 00-1.57.172l-10.675 5.397c-.364.184-.76.528-1.094.906zM40 25.469l-2.344-4.844c-.312-.625-1.068-1.469-1.718-1.797l-9.114-4.538a2.501 2.501 0 00-2.086 0l-9.113 4.538c-.65.328-1.406 1.172-1.719 1.797l-2.344 4.844H40zM40 25.469l2.344-4.844c.312-.625 1.068-1.469 1.718-1.797l9.114-4.538a2.501 2.501 0 012.086 0l9.113 4.538c.65.328 1.406 1.172 1.719 1.797l2.344 4.844H40zM0 32.656a2.5 2.5 0 012.5-2.5h75a2.5 2.5 0 012.5 2.5v2.5a2.5 2.5 0 01-2.5 2.5h-75a2.5 2.5 0 01-2.5-2.5v-2.5z" fill="currentColor"/><path fill-rule="evenodd" clip-rule="evenodd" d="M63.516 80c6.515 0 11.797-5.282 11.797-11.797 0-6.515-5.282-11.797-11.797-11.797-6.516 0-11.797 5.282-11.797 11.797C51.719 74.718 57 80 63.516 80zm.078-9.375a2.344 2.344 0 100-4.687 2.344 2.344 0 000 4.687zM32.969 68.203C32.969 74.718 27.687 80 21.172 80c-6.515 0-11.797-5.282-11.797-11.797 0-6.515 5.282-11.797 11.797-11.797 6.515 0 11.797 5.282 11.797 11.797zm-9.375.078a2.344 2.344 0 11-4.688 0 2.344 2.344 0 014.688 0z" fill="currentColor"/><path d="M74.688 42.344H5.311l4.401 13.852a16.43 16.43 0 0111.459-4.633c9.104 0 16.484 7.38 16.484 16.484 0 .877-.068 1.738-.2 2.578h9.776c-.132-.84-.2-1.701-.2-2.578 0-9.104 7.38-16.484 16.484-16.484 2.738 0 5.321.667 7.594 1.85l3.578-11.07z" fill="currentColor"/></svg><svg fill="none" viewBox="0 0 80 80" id="scope-of-use-img4" xmlns="http://www.w3.org/2000/svg"><path d="M21.99 11.055a12.51 12.51 0 017.698 5.16 12.51 12.51 0 017.697-5.16 7.972 7.972 0 00-15.395 0zM58.01 11.055a7.972 7.972 0 00-15.395 0 12.51 12.51 0 017.697 5.16 12.51 12.51 0 017.698-5.16zM27.04 21.094a7.972 7.972 0 00-15.33 0h15.33zM68.29 21.094a7.972 7.972 0 00-15.33 0h15.33zM47.665 21.094a7.972 7.972 0 00-15.33 0h15.33zM73.75 43.594H42.344V75H73.75V43.594z" fill="currentColor"/><path fill-rule="evenodd" clip-rule="evenodd" d="M37.656 43.594H6.25V75h31.406V43.594zM16.25 50.625h9.375v4.688H16.25v-4.688zm0 9.375h9.375v4.688H16.25V60z" fill="currentColor"/><path d="M2.217 25.625h35.44L35 38.906H0l2.217-13.281zM77.783 25.625h-35.44L45 38.906h35l-2.217-13.281z" fill="currentColor"/></svg><svg fill="none" viewBox="0 0 20 20" id="search-icon" xmlns="http://www.w3.org/2000/svg"><path d="M19.696 18.217l-4.93-4.95a7.884 7.884 0 001.962-5.192C16.728 3.623 12.976 0 8.364 0 3.752 0 0 3.623 0 8.075c0 4.453 3.752 8.075 8.364 8.075a8.48 8.48 0 004.792-1.461l4.967 4.988c.208.208.487.323.787.323.283 0 .552-.104.756-.294.433-.403.447-1.07.03-1.49zM8.364 2.107c3.409 0 6.182 2.677 6.182 5.968s-2.773 5.969-6.182 5.969c-3.409 0-6.182-2.678-6.182-5.969 0-3.291 2.773-5.968 6.182-5.968z" fill="#F14740"/></svg></svg>