<svg width="9" height="15" viewBox="0 0 9 15" fill="none" xmlns="http://www.w3.org/2000/svg">
<path d="M1.42295 14.3401L1.42286 14.3402C1.21162 14.5533 0.87114 14.5532 0.660209 14.3403L0.660038 14.3401C0.446646 14.1249 0.446666 13.774 0.660024 13.5588L0.660033 13.5588L6.31882 7.85195L6.66791 7.49989L6.31882 7.14784L0.660274 1.44124C0.660248 1.44121 0.660222 1.44119 0.660196 1.44116C0.446756 1.22573 0.446883 0.8749 0.660203 0.659761L0.660274 0.659689C0.871268 0.44681 1.21186 0.446706 1.42311 0.659761L1.42311 0.659764L7.81825 7.10934C7.81828 7.10937 7.81831 7.1094 7.81834 7.10943C7.92466 7.21675 7.97826 7.35699 7.97826 7.49986C7.97826 7.6428 7.9245 7.78326 7.81818 7.89052C7.81817 7.89053 7.81816 7.89055 7.81815 7.89056L1.42295 14.3401Z" fill="#D53834" stroke="#D53834"/>
</svg>
