<svg width="60" height="60" viewBox="0 0 60 60" fill="none" xmlns="http://www.w3.org/2000/svg">
<path d="M55.7998 27.1124L54.246 20.8974C54.6708 20.8071 54.9895 20.4303 54.9895 19.9788V18.9767C54.9895 16.801 53.2194 15.031 51.0438 15.031H43.9666V12.964C43.9666 11.8934 43.0957 11.0225 42.0251 11.0225H5.94984C4.87922 11.0225 4.00828 11.8934 4.00828 12.964V29.9996C4.00828 30.5184 4.42887 30.9391 4.94777 30.9391C5.46656 30.9391 5.88727 30.5185 5.88727 29.9996V12.964C5.88727 12.9295 5.91527 12.9014 5.94984 12.9014H42.025C42.0595 12.9014 42.0875 12.9295 42.0875 12.964V29.9998C42.0875 30.5186 42.5081 30.9393 43.027 30.9393C43.5458 30.9393 43.9665 30.5187 43.9665 29.9998V28.9348H55.0488C55.0498 28.9348 55.0505 28.935 55.0513 28.935C55.0522 28.935 55.053 28.9349 55.0539 28.9349C56.4176 28.9359 57.5755 29.8309 57.9732 31.0643H55.052C54.5332 31.0643 54.1125 31.4849 54.1125 32.0038V34.008C54.1125 35.6311 55.433 36.9516 57.0561 36.9516H58.1209V41.0852H55.6644C54.8575 38.7551 52.6425 37.0768 50.0415 37.0768C47.4405 37.0768 45.2255 38.7551 44.4186 41.0852H43.9663V34.0079C43.9663 33.4891 43.5457 33.0684 43.0268 33.0684C42.508 33.0684 42.0873 33.4889 42.0873 34.0079V41.0849H22.5957C21.7888 38.7549 19.5738 37.0765 16.9729 37.0765C14.3719 37.0765 12.1568 38.7549 11.35 41.0849H5.94984C5.91527 41.0849 5.88727 41.0569 5.88727 41.0223V38.9555H9.95824C10.477 38.9555 10.8977 38.5349 10.8977 38.016C10.8977 37.4971 10.4771 37.0765 9.95824 37.0765H0.939492C0.420703 37.0765 0 37.4971 0 38.016C0 38.5349 0.420586 38.9555 0.939492 38.9555H4.0084V41.0223C4.0084 42.093 4.87934 42.9639 5.94996 42.9639H11.0246C11.0244 42.9848 11.023 43.0055 11.023 43.0265C11.023 46.3073 13.6922 48.9763 16.9729 48.9763C20.2535 48.9763 22.9227 46.3073 22.9227 43.0265C22.9227 43.0054 22.9213 42.9848 22.9211 42.9639H44.0933C44.0931 42.9848 44.0917 43.0055 44.0917 43.0265C44.0917 46.3073 46.7609 48.9763 50.0415 48.9763C53.3222 48.9763 55.9914 46.3073 55.9914 43.0265C55.9914 43.0054 55.99 42.9848 55.9897 42.9639H59.0604C59.5792 42.9639 59.9999 42.5433 59.9999 42.0244V32.0036C60 29.5295 58.1746 27.4739 55.7998 27.1124ZM43.9666 16.9098H51.0438C52.1835 16.9098 53.1107 17.837 53.1107 18.9767V19.0393H43.9666V16.9098ZM43.9666 27.0559V20.9181H52.3145L53.8489 27.0559H43.9666ZM16.9729 47.0977C14.7281 47.0977 12.9019 45.2716 12.9019 43.0267C12.9019 40.7819 14.7281 38.9557 16.9729 38.9557C19.2176 38.9557 21.0438 40.7819 21.0438 43.0267C21.0438 45.2716 19.2176 47.0977 16.9729 47.0977ZM50.0418 47.0977C47.797 47.0977 45.9708 45.2716 45.9708 43.0267C45.9708 40.7819 47.797 38.9557 50.0418 38.9557C52.2865 38.9557 54.1127 40.7819 54.1127 43.0267C54.1127 45.2716 52.2865 47.0977 50.0418 47.0977ZM58.1211 35.0726H57.0564C56.4693 35.0726 55.9916 34.595 55.9916 34.0079V32.9431H58.121V35.0726H58.1211Z" fill="black"/>
<path d="M16.9729 41.0859C15.9022 41.0859 15.0313 41.9569 15.0313 43.0275C15.0313 44.0981 15.9022 44.9691 16.9729 44.9691C18.0435 44.9691 18.9144 44.0981 18.9144 43.0275C18.9144 41.9569 18.0435 41.0859 16.9729 41.0859Z" fill="black"/>
<path d="M50.0417 41.0859C48.971 41.0859 48.1001 41.9569 48.1001 43.0275C48.1001 44.0981 48.971 44.9691 50.0417 44.9691C51.1123 44.9691 51.9832 44.0981 51.9832 43.0275C51.9832 41.9569 51.1123 41.0859 50.0417 41.0859Z" fill="black"/>
<path d="M39.0187 37.0771H24.9895C24.4707 37.0771 24.05 37.4977 24.05 38.0166C24.05 38.5355 24.4706 38.9561 24.9895 38.9561H39.0187C39.5375 38.9561 39.9582 38.5355 39.9582 38.0166C39.9582 37.4977 39.5376 37.0771 39.0187 37.0771Z" fill="black"/>
<path d="M14.9687 33.0693H2.94358C2.42479 33.0693 2.00409 33.4899 2.00409 34.0088C2.00409 34.5277 2.42468 34.9483 2.94358 34.9483H14.9687C15.4874 34.9483 15.9081 34.5277 15.9081 34.0088C15.9081 33.4899 15.4874 33.0693 14.9687 33.0693Z" fill="black"/>
<path d="M32.6685 20.3171C32.3017 19.9503 31.7067 19.9503 31.3399 20.3172L22.9854 28.6716L18.6393 24.3255C18.2723 23.9586 17.6775 23.9586 17.3107 24.3255C16.9438 24.6924 16.9438 25.2871 17.3107 25.654L22.3212 30.6645C22.5046 30.848 22.745 30.9396 22.9854 30.9396C23.2258 30.9396 23.4663 30.848 23.6496 30.6645L32.6684 21.6457C33.0353 21.2787 33.0353 20.684 32.6685 20.3171Z" fill="black"/>
</svg>
