<svg width="50" height="50" viewBox="0 0 50 50" fill="none" xmlns="http://www.w3.org/2000/svg">
<path d="M49.1936 0H4.03226C3.58729 0 3.22581 0.361486 3.22581 0.806451V3.22581H0.806452C0.361486 3.22581 0 3.58729 0 4.03226V36.2903C0 36.7365 0.361486 37.0968 0.806452 37.0968H16.5492C17.3171 38.0249 18.2735 38.7888 19.3548 39.3436V49.1935C19.3548 49.5192 19.5517 49.8145 19.8526 49.9385C20.1534 50.0638 20.4999 49.9945 20.7315 49.7637L23.3871 47.1081L26.0427 49.7637C26.1967 49.9177 26.4034 50 26.6129 50C26.7169 50 26.822 49.9807 26.922 49.9385C27.2225 49.8145 27.4194 49.5192 27.4194 49.1935V39.3436C28.5003 38.7888 29.4564 38.0257 30.225 37.0968H45.9677C46.4131 37.0968 46.7742 36.7365 46.7742 36.2903V33.871H49.1936C49.6389 33.871 50 33.5107 50 33.0645V0.806451C50 0.361486 49.6389 0 49.1936 0ZM25.8065 47.2467L23.9573 45.3975C23.6419 45.0821 23.1323 45.0821 22.8169 45.3975L20.9677 47.2467V39.9792C21.738 40.1977 22.5476 40.3226 23.3871 40.3226C24.2266 40.3226 25.0362 40.1977 25.8065 39.9792V47.2467ZM23.3871 38.7097C19.3856 38.7097 16.129 35.4539 16.129 31.4516C16.129 27.4493 19.3856 24.1935 23.3871 24.1935C27.3886 24.1935 30.6452 27.4493 30.6452 31.4516C30.6452 35.4539 27.3886 38.7097 23.3871 38.7097ZM14.5575 32.258H9.62032C9.26553 29.7887 7.30729 27.8316 4.83871 27.4764V12.8461C7.30729 12.4909 9.26553 10.5331 9.62032 8.06451H37.1551C37.5098 10.5331 39.4677 12.4909 41.9363 12.8461V27.4772C39.4677 27.8316 37.5098 29.7895 37.1551 32.2588H32.2179C32.2411 31.9919 32.2581 31.7241 32.2581 31.4516C32.2581 26.5605 28.2782 22.5806 23.3871 22.5806C18.496 22.5806 14.5161 26.5605 14.5161 31.4516C14.5161 31.7241 14.5331 31.9919 14.5575 32.258ZM45.1613 35.4839H31.2791C31.5414 34.9727 31.7548 34.4341 31.9147 33.871H37.9032C38.3486 33.871 38.7097 33.5107 38.7097 33.0645C38.7097 30.8412 40.5187 29.0322 42.7419 29.0322C43.1873 29.0322 43.5484 28.6719 43.5484 28.2258V12.0968C43.5484 11.6518 43.1873 11.2903 42.7419 11.2903C40.5187 11.2903 38.7097 9.48132 38.7097 7.25806C38.7097 6.8131 38.3486 6.45161 37.9032 6.45161H8.87097C8.426 6.45161 8.06452 6.8131 8.06452 7.25806C8.06452 9.48132 6.25591 11.2903 4.03226 11.2903C3.58729 11.2903 3.22581 11.6518 3.22581 12.0968V28.2258C3.22581 28.6719 3.58729 29.0322 4.03226 29.0322C6.25591 29.0322 8.06452 30.8412 8.06452 33.0645C8.06452 33.5107 8.426 33.871 8.87097 33.871H14.8599C15.0194 34.4341 15.2332 34.9727 15.4951 35.4839H1.6129V4.83871H45.1613V35.4839ZM48.3871 32.258H46.7742V4.03226C46.7742 3.58729 46.4131 3.22581 45.9677 3.22581H4.83871V1.6129H48.3871V32.258Z" fill="black"/>
<path d="M23.3871 25.8066C20.2743 25.8066 17.7419 28.3398 17.7419 31.4518H19.3549C19.3549 29.2286 21.1639 27.4195 23.3871 27.4195V25.8066Z" fill="black"/>
<path d="M27.4195 31.4512C27.4195 33.6744 25.6109 35.4834 23.3872 35.4834V37.0963C26.5 37.0963 29.0324 34.5632 29.0324 31.4512H27.4195Z" fill="black"/>
<path d="M35.484 13.71V10.4842C35.484 10.0392 35.1229 9.67773 34.6775 9.67773H12.0968C11.6518 9.67773 11.2903 10.0392 11.2903 10.4842V13.71C11.2903 14.155 11.6518 14.5165 12.0968 14.5165H34.6775C35.1229 14.5165 35.484 14.155 35.484 13.71ZM33.8711 12.9036H12.9033V11.2906H33.8711V12.9036Z" fill="black"/>
<path d="M6.45166 16.1289H12.9033V17.7418H6.45166V16.1289Z" fill="black"/>
<path d="M6.45166 19.3545H12.9033V20.9674H6.45166V19.3545Z" fill="black"/>
<path d="M14.5161 19.3545H40.3226V20.9674H14.5161V19.3545Z" fill="black"/>
<path d="M14.5161 16.1289H40.3226V17.7418H14.5161V16.1289Z" fill="black"/>
</svg>
