<svg width="80" height="80" viewBox="0 0 80 80" fill="none" xmlns="http://www.w3.org/2000/svg">
<path d="M40 16.0617C39.6664 15.6842 39.2698 15.3397 38.9062 15.1562L28.2304 9.75906C27.8993 9.60724 27.5434 9.53125 27.1875 9.53125C27.0111 9.53125 26.8348 9.54987 26.6615 9.58725L28.125 6.5625C28.4375 5.9375 29.1934 5.09384 29.8438 4.76562L38.9571 0.227814C39.2882 0.0759888 39.6441 0 40 0C40.3559 0 40.7118 0.0759888 41.0429 0.227814L50.1562 4.76562C50.8066 5.09384 51.5625 5.9375 51.875 6.5625L53.3385 9.58725C53.1652 9.54987 52.9889 9.53125 52.8125 9.53125C52.4566 9.53125 52.1007 9.60724 51.7696 9.75906L41.0938 15.1562C40.7302 15.3397 40.3336 15.6844 40 16.0617Z" fill="currentColor"/>
<path d="M40 25.4688L37.6562 20.625C37.3438 20 36.5878 19.1563 35.9375 18.8281L26.8241 14.2903C26.4931 14.1385 26.1372 14.0625 25.7812 14.0625C25.4253 14.0625 25.0694 14.1385 24.7384 14.2903L15.625 18.8281C14.9747 19.1563 14.2188 20 13.9062 20.625L11.5625 25.4688H40Z" fill="currentColor"/>
<path d="M40 25.4688L42.3438 20.625C42.6562 20 43.4122 19.1563 44.0625 18.8281L53.1759 14.2903C53.5069 14.1385 53.8628 14.0625 54.2188 14.0625C54.5747 14.0625 54.9306 14.1385 55.2616 14.2903L64.375 18.8281C65.0253 19.1563 65.7812 20 66.0938 20.625L68.4375 25.4688H40Z" fill="currentColor"/>
<path d="M0 32.6562C0 31.2755 1.11927 30.1562 2.5 30.1562H77.5C78.8807 30.1562 80 31.2755 80 32.6562V35.1562C80 36.537 78.8807 37.6562 77.5 37.6562H2.5C1.11927 37.6562 0 36.537 0 35.1562V32.6562Z" fill="currentColor"/>
<path fill-rule="evenodd" clip-rule="evenodd" d="M63.5156 80C70.0309 80 75.3125 74.7183 75.3125 68.2031C75.3125 61.6879 70.0309 56.4062 63.5156 56.4062C57.0004 56.4062 51.7188 61.6879 51.7188 68.2031C51.7188 74.7183 57.0004 80 63.5156 80ZM63.5938 70.625C64.8882 70.625 65.9375 69.5757 65.9375 68.2812C65.9375 66.9868 64.8882 65.9375 63.5938 65.9375C62.2993 65.9375 61.25 66.9868 61.25 68.2812C61.25 69.5757 62.2993 70.625 63.5938 70.625Z" fill="currentColor"/>
<path fill-rule="evenodd" clip-rule="evenodd" d="M32.9688 68.2031C32.9688 74.7183 27.6871 80 21.1719 80C14.6566 80 9.375 74.7183 9.375 68.2031C9.375 61.6879 14.6566 56.4062 21.1719 56.4062C27.6871 56.4062 32.9688 61.6879 32.9688 68.2031ZM23.5938 68.2812C23.5938 69.5757 22.5444 70.625 21.25 70.625C19.9556 70.625 18.9062 69.5757 18.9062 68.2812C18.9062 66.9868 19.9556 65.9375 21.25 65.9375C22.5444 65.9375 23.5938 66.9868 23.5938 68.2812Z" fill="currentColor"/>
<path d="M74.6875 42.3438H5.3125L9.71321 56.1964C12.6794 53.3276 16.7195 51.5625 21.1719 51.5625C30.276 51.5625 37.6562 58.9429 37.6562 68.0469C37.6562 68.924 37.5877 69.785 37.4558 70.625H47.2317C47.0998 69.785 47.0312 68.924 47.0312 68.0469C47.0312 58.9429 54.4115 51.5625 63.5156 51.5625C66.2545 51.5625 68.8373 52.2304 71.1101 53.4123L74.6875 42.3438Z" fill="currentColor"/>
</svg>
