<svg width="80" height="80" viewBox="0 0 80 80" fill="none" xmlns="http://www.w3.org/2000/svg">
<path d="M5.01905 2.26266C5.1414 0.979711 6.21899 0 7.50776 0H72.4181C73.7056 0 74.7825 0.9778 74.9065 2.2593L79.9697 54.603C80.1118 56.072 78.9572 57.3438 77.4813 57.3438H58.5942V36.947C59.4024 34.7849 59.8442 32.444 59.8442 30C59.8442 19.0406 50.9599 10.1562 40.0005 10.1562C29.0411 10.1562 20.1567 19.0406 20.1567 30C20.1567 32.444 20.5985 34.7849 21.4067 36.947V57.3438H2.51585C1.04137 57.3438 -0.112843 56.0742 0.0271396 54.6064L5.01905 2.26266Z" fill="currentColor"/>
<path d="M54.5618 34.2188C54.9491 32.8795 55.1567 31.464 55.1567 30C55.1567 21.6294 48.371 14.8438 40.0004 14.8438C31.6299 14.8438 24.8442 21.6294 24.8442 30C24.8442 31.464 25.0518 32.8795 25.4391 34.2188H54.5618Z" fill="currentColor"/>
<path d="M53.9067 38.9062V62.1348C53.9067 63.6018 52.7174 64.791 51.2504 64.791C49.7834 64.791 48.5942 63.6018 48.5942 62.1348L48.5942 50C48.5942 48.7056 47.5449 47.6562 46.2504 47.6562C44.956 47.6562 43.9067 48.7056 43.9067 50V76.0938C43.9067 78.2511 42.1578 80 40.0004 80C37.8431 80 36.0942 78.2511 36.0942 76.0938V57.5C36.0942 56.2056 35.0449 55.1562 33.7504 55.1562C32.456 55.1562 31.4067 56.2056 31.4067 57.5V69.5313C31.4067 70.9983 30.2174 72.1876 28.7504 72.1876C27.2834 72.1876 26.0942 70.9983 26.0942 69.5313V38.9062H53.9067Z" fill="currentColor"/>
</svg>
